<svg width="1755" height="741" viewBox="0 0 1755 741" fill="none" xmlns="http://www.w3.org/2000/svg">
<path d="M98.6382 365.967L237.898 263.273M98.6382 365.967L101.812 341.521M98.6382 365.967L96.4184 388.95M237.898 263.273L237.898 241.795M237.898 263.273L237.898 286.105" stroke="#39A5E9" stroke-width="12" stroke-linecap="round"/>
<path d="M748.281 295.355L1039.98 295.355M748.281 295.355V277.982M748.281 295.355V313.776M1039.98 295.355L1039.98 277.982M1039.98 295.355L1039.98 313.776" stroke="#39A5E9" stroke-width="12" stroke-linecap="round"/>
<path d="M158.434 399.73C157.625 401.658 155.738 402.913 153.647 402.913H150.772C147.04 402.913 144.528 399.093 146.006 395.666L161.003 360.897C161.824 358.994 163.698 357.762 165.77 357.762H177.074C179.143 357.762 181.015 358.992 181.837 360.891L196.887 395.66C198.37 399.088 195.858 402.913 192.123 402.913H188.948C186.844 402.913 184.948 401.643 184.147 399.697L182.474 395.629C182.207 394.98 181.575 394.557 180.874 394.557H161.754C161.057 394.557 160.428 394.975 160.158 395.618L158.434 399.73ZM168.016 376.833L165.388 383.168H177.383L174.755 376.833L171.948 369.625C171.853 369.38 171.617 369.218 171.354 369.218C171.089 369.218 170.852 369.382 170.757 369.629L168.016 376.833Z" fill="#39A5E9"/>
<path d="M881.47 266.175C880.661 268.103 878.774 269.358 876.683 269.358H873.808C870.076 269.358 867.563 265.538 869.041 262.112L884.039 227.342C884.86 225.44 886.733 224.208 888.805 224.208H900.109C902.179 224.208 904.051 225.437 904.873 227.336L919.922 262.106C921.406 265.533 918.893 269.358 915.159 269.358H911.983C909.879 269.358 907.983 268.088 907.183 266.142L905.51 262.074C905.243 261.425 904.611 261.002 903.91 261.002H884.79C884.093 261.002 883.464 261.42 883.194 262.063L881.47 266.175ZM891.052 243.279L888.424 249.613H900.419L897.791 243.279L894.984 236.07C894.888 235.825 894.652 235.664 894.389 235.664C894.125 235.664 893.887 235.827 893.793 236.075L891.052 243.279Z" fill="#39A5E9"/>
</svg>
