<svg width="1755" height="741" viewBox="0 0 1755 741" fill="none" xmlns="http://www.w3.org/2000/svg">
<path d="M830.096 225.044L830.096 478.445M830.096 225.044L847.469 225.044M830.096 225.044L811.676 225.044M830.096 478.445L847.469 478.445M830.096 478.445L811.676 478.445" stroke="#14213D" stroke-width="12" stroke-linecap="round"/>
<path d="M1672.65 206.776L1672.65 487.445M1672.65 206.776L1690.03 206.776M1672.65 206.776L1582.23 206.776M1672.65 487.445L1690.03 487.445M1672.65 487.445L1582.23 487.445" stroke="#14213D" stroke-width="12" stroke-linecap="round"/>
<path d="M255.439 81.6077L460.272 169.653M255.439 81.6077L255.439 65.2502M255.439 81.6077L255.439 98.5045M460.272 169.653L460.272 152.714M460.272 169.653L460.272 188.701" stroke="#14213D" stroke-width="12" stroke-linecap="round"/>
<path d="M365.061 205.776H339.995C337.128 205.776 334.804 203.452 334.804 200.585V165.816C334.804 162.949 337.128 160.625 339.994 160.625H363.512C373.283 160.625 378.135 164.467 378.135 171.543C378.135 177.258 375.186 181.334 367.221 181.769C367.033 181.78 366.881 181.934 366.881 182.122C366.881 182.31 367.033 182.465 367.221 182.474C376.02 182.903 380.224 187.054 380.224 193.242C380.224 200.857 375.844 205.776 365.061 205.776ZM347.405 172.014V177.742H362.164C364.725 177.742 365.466 177.001 365.466 174.912C365.466 172.823 364.455 172.014 361.827 172.014H347.405ZM347.405 188.12V194.387H363.444C366.477 194.387 367.42 193.781 367.42 191.22C367.42 188.727 366.544 188.12 363.444 188.12H347.405Z" fill="#14213D"/>
<path d="M782.348 370.516H757.281C754.414 370.516 752.09 368.192 752.09 365.325V330.556C752.09 327.689 754.414 325.365 757.281 325.365H780.798C790.569 325.365 795.421 329.206 795.421 336.282C795.421 341.997 792.472 346.074 784.507 346.509C784.319 346.519 784.167 346.673 784.167 346.861C784.167 347.05 784.319 347.204 784.508 347.213C793.306 347.642 797.51 351.793 797.51 357.981C797.51 365.596 793.13 370.516 782.348 370.516ZM764.692 336.754V342.482H779.45C782.011 342.482 782.752 341.74 782.752 339.651C782.752 337.562 781.741 336.754 779.113 336.754H764.692ZM764.692 352.86V359.127H780.73C783.763 359.127 784.706 358.52 784.706 355.959C784.706 353.466 783.83 352.86 780.73 352.86H764.692Z" fill="#14213D"/>
<path d="M1614.02 367.15H1588.95C1586.08 367.15 1583.76 364.826 1583.76 361.96V327.19C1583.76 324.324 1586.08 322 1588.95 322H1612.47C1622.24 322 1627.09 325.841 1627.09 332.917C1627.09 338.632 1624.14 342.708 1616.18 343.144C1615.99 343.154 1615.84 343.308 1615.84 343.496C1615.84 343.684 1615.99 343.839 1616.18 343.848C1624.97 344.277 1629.18 348.428 1629.18 354.616C1629.18 362.231 1624.8 367.15 1614.02 367.15ZM1596.36 333.388V339.116H1611.12C1613.68 339.116 1614.42 338.375 1614.42 336.286C1614.42 334.197 1613.41 333.388 1610.78 333.388H1596.36ZM1596.36 349.494V355.762H1612.4C1615.43 355.762 1616.38 355.155 1616.38 352.594C1616.38 350.101 1615.5 349.494 1612.4 349.494H1596.36Z" fill="#14213D"/>
</svg>
