<svg width="1755" height="741" viewBox="0 0 1755 741" fill="none" xmlns="http://www.w3.org/2000/svg">
<path d="M1422.68 188.701L1422.68 662.485M1422.68 188.701L1440.06 188.701M1422.68 188.701L1404.26 188.701M1422.68 662.485L1440.06 662.485M1422.68 662.485L1404.26 662.485" stroke="#FCA311" stroke-width="12" stroke-linecap="round"/>
<path d="M222.623 354.14L593.325 513.482M222.623 354.14L222.623 334.508M222.623 354.14L222.623 372.847M593.325 513.482L593.325 495.206M593.325 513.482L593.325 535.176" stroke="#FCA311" stroke-width="12" stroke-linecap="round"/>
<path d="M440.49 415.666C425.243 415.666 416.278 406.767 416.278 393.09C416.278 379.414 425.243 370.515 440.49 370.515C455.213 370.515 464.046 377.517 464.046 389.23C464.046 389.844 463.548 390.342 462.934 390.342H451.417C450.803 390.342 450.305 389.844 450.305 389.23C450.305 384.257 447.949 382.294 440.686 382.294C431.787 382.294 429.365 384.388 429.365 393.09C429.365 401.793 431.787 403.887 440.686 403.887C447.949 403.887 450.305 401.924 450.305 396.951C450.305 396.337 450.803 395.839 451.417 395.839H462.934C463.548 395.839 464.046 396.337 464.046 396.951C464.046 408.664 455.213 415.666 440.49 415.666Z" fill="#FCA311"/>
<path d="M1370.68 417.803C1355.43 417.803 1346.46 408.904 1346.46 395.228C1346.46 381.552 1355.43 372.653 1370.68 372.653C1385.4 372.653 1394.23 379.654 1394.23 391.367C1394.23 391.982 1393.73 392.48 1393.12 392.48H1381.6C1380.99 392.48 1380.49 391.982 1380.49 391.367C1380.49 386.394 1378.14 384.431 1370.87 384.431C1361.97 384.431 1359.55 386.525 1359.55 395.228C1359.55 403.931 1361.97 406.025 1370.87 406.025C1378.14 406.025 1380.49 404.062 1380.49 399.089C1380.49 398.474 1380.99 397.976 1381.6 397.976H1393.12C1393.73 397.976 1394.23 398.474 1394.23 399.089C1394.23 410.802 1385.4 417.803 1370.68 417.803Z" fill="#FCA311"/>
</svg>
