<svg width="330" height="49" viewBox="0 0 330 49" fill="none" xmlns="http://www.w3.org/2000/svg">
<path d="M240.154 47.5683C232.078 47.5683 226.586 42.9994 226.586 35.4768C226.586 27.908 232.078 23.3853 240.154 23.3853C248.231 23.3853 253.723 27.908 253.723 35.4768C253.723 42.9994 248.231 47.5683 240.154 47.5683ZM240.154 39.9072C244.077 39.9072 245.139 38.8458 245.139 35.4768C245.139 32.1078 244.077 31.0001 240.154 31.0001C236.232 31.0001 235.17 32.1078 235.17 35.4768C235.17 38.8458 236.232 39.9072 240.154 39.9072Z" fill="black"/>
<path fill-rule="evenodd" clip-rule="evenodd" d="M183.595 47.5683C175.703 47.5683 170.165 44.1993 170.165 35.4768C170.165 27.908 175.657 23.3853 183.41 23.3853C191.44 23.3853 196.563 27.4004 196.563 34.8768C196.563 35.328 196.548 35.7181 196.517 36.1261C196.476 36.677 196.007 37.092 195.454 37.092H178.195C178.333 39.9072 179.58 40.6918 183.272 40.6918C184.457 40.6975 186.593 40.3841 187.391 39.2209C187.729 38.7271 188.188 38.1997 188.786 38.1997H195.294C195.893 38.1997 196.385 38.6885 196.326 39.2842C195.723 45.2954 190.049 47.5683 183.595 47.5683ZM178.333 32.7077C178.703 30.7232 180.041 30.031 183.225 30.031C186.456 30.031 187.841 30.7232 188.164 32.7077H178.333Z" fill="black"/>
<path d="M211.945 47.5683C203.684 47.5683 198.423 42.9994 198.423 35.4768C198.423 27.908 203.684 23.3853 211.945 23.3853C214.353 23.3853 224.227 23.7716 224.921 33.3289C224.965 33.9261 224.474 34.4153 223.876 34.4153H217.414C216.815 34.4153 216.358 33.9242 216.251 33.3351C216.002 31.9657 215.043 31.1386 211.761 31.1386C208.576 31.1386 207.053 31.8309 207.053 35.4768C207.053 39.0765 208.576 39.7688 211.761 39.7688C213.954 39.7688 215.808 39.7688 216.237 37.5708C216.351 36.9831 216.815 36.4921 217.414 36.4921H223.876C224.474 36.4921 224.965 36.9823 224.922 37.5795C224.31 46.0444 216.53 47.5683 211.945 47.5683Z" fill="black"/>
<path d="M78.0659 48.3066C69.7541 48.3066 63.9213 44.7583 63.9213 35.5716C63.9213 27.6001 69.7055 22.8366 77.8715 22.8366C86.3291 22.8366 91.7244 27.0654 91.7244 34.9397C91.7244 35.1919 91.7199 35.4259 91.7109 35.6543C91.6742 36.5783 90.879 37.2729 89.9542 37.2729H73.332C72.8134 37.2729 72.3895 37.7103 72.4791 38.2212C72.8642 40.4186 74.2886 41.0642 77.7256 41.0642C81.4198 41.0642 82.3919 40.4323 82.3919 38.9741V38.9741C82.3919 38.6788 82.6313 38.4394 82.9266 38.4394H90.9467C91.2689 38.4394 91.53 38.7006 91.53 39.0227V39.0227C91.53 44.4667 86.3291 48.3066 78.0659 48.3066ZM77.677 29.836C74.952 29.836 73.5105 30.3173 72.8572 31.6189C72.6025 32.1262 73.0489 32.6552 73.6165 32.6552H81.8109C82.3702 32.6552 82.8154 32.1401 82.5718 31.6365C81.9359 30.3217 80.454 29.836 77.677 29.836Z" fill="black"/>
<path d="M103.308 46.0057C103.308 47.008 102.495 47.8206 101.493 47.8206H95.9845C94.9821 47.8206 94.1696 47.008 94.1696 46.0057V25.1375C94.1696 24.1352 94.9822 23.3227 95.9845 23.3227H100.91C101.912 23.3227 102.724 24.1352 102.724 25.1375V30.5006C102.724 30.6436 102.84 30.7595 102.983 30.7595V30.7595C103.113 30.7595 103.223 30.6631 103.242 30.5346C103.845 26.5366 106.539 22.8366 112.981 22.8366C119.591 22.8366 122.702 26.8224 122.702 32.1205V46.0057C122.702 47.008 121.877 47.8206 120.874 47.8206V47.8206C116.865 47.8206 113.564 44.5704 113.564 40.5611V35.4744C113.564 32.0719 112.3 31.0026 108.314 31.0026C104.28 31.0026 103.308 32.0233 103.308 35.1828V46.0057Z" fill="black"/>
<path d="M143.728 46.0057C143.728 47.008 142.916 47.8206 141.913 47.8206H137.312C131.188 47.8206 127.542 44.8555 127.542 38.488V30.8081H125.76C124.758 30.8081 123.945 29.9956 123.945 28.9933V25.1375C123.945 24.1352 124.758 23.3227 125.76 23.3227H127.542V20.9087C127.542 19.9064 128.355 19.0939 129.357 19.0939H134.865C135.868 19.0939 136.68 19.9064 136.68 20.9087V23.3227H141.913C142.916 23.3227 143.728 24.1352 143.728 25.1375V28.9933C143.728 29.9956 142.916 30.8081 141.913 30.8081H136.68V37.1756C136.68 39.1199 137.263 39.606 139.354 39.606H141.913C142.916 39.606 143.728 40.4185 143.728 41.4209V46.0057Z" fill="black"/>
<path d="M155.048 19.2719C155.048 20.2742 154.235 21.0867 153.233 21.0867H147.724C146.722 21.0867 145.909 20.2742 145.909 19.2719V17.0688C145.909 16.0665 146.722 15.2539 147.724 15.2539H153.233C154.235 15.2539 155.048 16.0665 155.048 17.0688V19.2719ZM155.048 46.2976C155.048 47.1387 154.366 47.8206 153.525 47.8206V47.8206C149.319 47.8206 145.909 44.4112 145.909 40.2055V25.1375C145.909 24.1352 146.722 23.3227 147.724 23.3227H153.233C154.235 23.3227 155.048 24.1352 155.048 25.1375V46.2976Z" fill="black"/>
<path d="M167.104 46.0057C167.104 47.008 166.292 47.8206 165.289 47.8206H159.781C158.779 47.8206 157.966 47.008 157.966 46.0057V17.0688C157.966 16.0665 158.779 15.2539 159.781 15.2539H165.289C166.292 15.2539 167.104 16.0665 167.104 17.0688V46.0057Z" fill="black"/>
<path d="M47.355 46.5783L40.9775 30.2835C39.3491 26.123 35.3377 23.3853 30.8698 23.3853C29.5589 23.3853 28.6833 24.736 29.2183 25.9327L37.0817 43.5201C38.2503 46.1337 40.846 47.8165 43.709 47.8165H46.51C47.1491 47.8165 47.5879 47.1735 47.355 46.5783Z" fill="black"/>
<path d="M33.7334 47.0681L27.3559 30.7733C25.7275 26.6127 21.7161 23.875 17.2482 23.875C15.9374 23.875 15.0617 25.2257 15.5967 26.4224L23.4602 44.0098C24.6287 46.6235 27.2244 48.3062 30.0874 48.3062H32.8884C33.5275 48.3062 33.9663 47.6632 33.7334 47.0681Z" fill="#39A5E9"/>
<path d="M20.228 47.0681L13.8505 30.7733C12.2222 26.6127 8.21071 23.875 3.74285 23.875C2.43199 23.875 1.55632 25.2257 2.09137 26.4224L9.95479 44.0098C11.1234 46.6235 13.719 48.3062 16.582 48.3062H19.383C20.0221 48.3062 20.461 47.6632 20.228 47.0681Z" fill="#9CD2F4"/>
<path d="M45.8751 46.5783L52.2526 30.2835C53.881 26.123 57.8924 23.3853 62.3603 23.3853C63.6712 23.3853 64.5468 24.736 64.0118 25.9327L56.1484 43.5201C54.9798 46.1337 52.3841 47.8165 49.5211 47.8165H46.7201C46.081 47.8165 45.6422 47.1735 45.8751 46.5783Z" fill="black"/>
<path fill-rule="evenodd" clip-rule="evenodd" d="M319.49 1.10163C322.132 1.93777 323.16 4.31976 322.167 7.30638C321 10.8196 321.746 11.3845 324.209 8.85198C326.798 6.18954 329.726 7.55852 329.482 11.3174C329.198 15.7101 326.454 17.4087 322.203 15.8226C320.85 15.3173 320.501 15.2681 320.14 15.5302L319.705 15.8454L320.114 16.6304C320.339 17.0621 320.858 17.6606 321.267 17.9604C323.834 19.8416 322.677 23.3824 319.496 23.3849C314.946 23.3886 312.869 20.7838 314.142 16.6692C315.184 13.303 314.584 12.8827 312.074 15.2197C311.486 15.8068 311.608 16.4343 309.568 16.425C306.954 16.413 305.98 13.9752 307.247 10.6172C308.225 8.02751 310.118 7.06716 312.714 7.84493L315.064 8.54992C316.896 9.10014 316.816 7.83798 314.904 6.01515C311.666 2.93066 314.768 -0.392552 319.49 1.10163ZM316.684 12.9065C316.065 12.0843 316.453 10.8191 317.439 10.4478C318.595 10.0118 319.284 10.3146 319.768 11.4722C320.507 13.2421 317.863 14.472 316.684 12.9065Z" fill="#39A5E9"/>
<path d="M275.299 45.5735C275.299 46.1051 274.868 46.5361 274.336 46.5361C270.083 46.5361 266.635 43.0881 266.635 38.8348V30.4064H264.503C263.95 30.4064 263.501 29.9581 263.501 29.405V24.3106C263.501 23.7576 263.95 23.3093 264.503 23.3093H266.819C267.741 18.9312 272.027 15.6592 279.631 15.6592H280.473C281.026 15.6592 281.474 16.1075 281.474 16.6605V20.8332C281.474 21.3863 281.026 21.8346 280.473 21.8346H278.248C275.852 21.8346 274.7 22.065 274.746 23.3093H280.473C281.026 23.3093 281.474 23.7576 281.474 24.3106V29.405C281.474 29.9581 281.026 30.4064 280.473 30.4064H275.299V45.5735Z" fill="black"/>
<path d="M291.994 45.5735C291.994 46.1051 291.563 46.5361 291.032 46.5361C286.778 46.5361 283.33 43.0881 283.33 38.8348V24.3106C283.33 23.7576 283.779 23.3093 284.332 23.3093H290.44C290.993 23.3093 291.441 23.7576 291.441 24.3106V29.3925H291.902C292.547 25.5675 294.944 22.8484 299.552 22.8484C304.668 22.8484 306.695 26.2126 306.695 30.8672V34.4744C306.695 35.0274 306.247 35.4757 305.694 35.4757H299.033C298.48 35.4757 298.032 35.0274 298.032 34.4744V32.7567C298.032 30.8212 297.294 30.1299 295.036 30.1299C292.686 30.1299 291.994 30.8212 291.994 32.6646V45.5735Z" fill="black"/>
<path d="M263.536 42.115C263.536 44.5568 261.557 46.5362 259.115 46.5362C256.674 46.5362 254.694 44.5568 254.694 42.115C254.694 39.6733 256.674 37.6939 259.115 37.6939C261.557 37.6939 263.536 39.6733 263.536 42.115Z" fill="black"/>
</svg>
