<svg width="359" height="52" viewBox="0 0 359 52" fill="none" xmlns="http://www.w3.org/2000/svg">
<path d="M311.954 50.5969C301.437 50.5969 294.286 44.6473 294.286 34.8515C294.286 24.9956 301.437 19.1061 311.954 19.1061C322.471 19.1061 329.623 24.9956 329.623 34.8515C329.623 44.6473 322.471 50.5969 311.954 50.5969ZM311.954 40.6208C317.063 40.6208 318.445 39.2386 318.445 34.8515C318.445 30.4644 317.063 29.0221 311.954 29.0221C306.846 29.0221 305.464 30.4644 305.464 34.8515C305.464 39.2386 306.846 40.6208 311.954 40.6208Z" fill="black"/>
<path fill-rule="evenodd" clip-rule="evenodd" d="M238.303 50.5969C228.027 50.5969 220.815 46.2098 220.815 34.8515C220.815 24.9956 227.966 19.1061 238.063 19.1061C248.52 19.1061 255.19 24.3345 255.19 34.0702C255.19 34.6577 255.171 35.1657 255.131 35.697C255.077 36.4144 254.466 36.9549 253.746 36.9549H231.272C231.452 40.6208 233.075 41.6424 237.882 41.6424C239.426 41.6499 242.207 41.2418 243.246 39.7271C243.687 39.084 244.284 38.3972 245.064 38.3972H253.538C254.318 38.3972 254.959 39.0337 254.881 39.8095C254.096 47.6372 246.708 50.5969 238.303 50.5969ZM231.452 31.2457C231.933 28.6615 233.676 27.76 237.822 27.76C242.029 27.76 243.832 28.6615 244.253 31.2457H231.452Z" fill="black"/>
<path d="M275.221 50.5969C264.464 50.5969 257.613 44.6473 257.613 34.8515C257.613 24.9956 264.464 19.1061 275.221 19.1061C278.356 19.1061 291.214 19.6092 292.118 32.0546C292.175 32.8323 291.536 33.4693 290.757 33.4693H282.342C281.562 33.4693 280.967 32.8298 280.828 32.0626C280.504 30.2794 279.254 29.2024 274.981 29.2024C270.834 29.2024 268.851 30.1038 268.851 34.8515C268.851 39.5391 270.834 40.4405 274.981 40.4405C277.836 40.4405 280.251 40.4405 280.809 37.5783C280.958 36.813 281.562 36.1736 282.342 36.1736H290.757C291.536 36.1736 292.175 36.8119 292.118 37.5896C291.322 48.6125 281.191 50.5969 275.221 50.5969Z" fill="black"/>
<path d="M100.885 51.5584C90.0615 51.5584 82.4661 46.9378 82.4661 34.975C82.4661 24.5946 89.9982 18.3917 100.632 18.3917C111.645 18.3917 118.671 23.8983 118.671 34.1522C118.671 34.4805 118.665 34.7853 118.653 35.0826C118.606 36.2859 117.57 37.1904 116.366 37.1904H94.7206C94.0452 37.1904 93.4933 37.76 93.6099 38.4253C94.1114 41.2867 95.9662 42.1274 100.442 42.1274C105.252 42.1274 106.518 41.3046 106.518 39.4057C106.518 39.0212 106.83 38.7095 107.215 38.7095H117.658C118.078 38.7095 118.418 39.0495 118.418 39.469C118.418 46.5581 111.645 51.5584 100.885 51.5584ZM100.379 27.5062C96.8301 27.5062 94.953 28.1329 94.1023 29.8278C93.7707 30.4885 94.3519 31.1773 95.0911 31.1773H105.762C106.49 31.1773 107.07 30.5065 106.753 29.8508C105.924 28.1386 103.995 27.5062 100.379 27.5062Z" fill="black"/>
<path d="M133.755 48.5621C133.755 49.8674 132.696 50.9254 131.391 50.9254H124.218C122.913 50.9254 121.855 49.8674 121.855 48.5621V21.3879C121.855 20.0827 122.913 19.0246 124.218 19.0246H130.632C131.937 19.0246 132.995 20.0827 132.995 21.3879V28.3717C132.995 28.5579 133.146 28.7088 133.332 28.7088C133.501 28.7088 133.644 28.5832 133.669 28.4158C134.454 23.2098 137.963 18.3917 146.35 18.3917C154.958 18.3917 159.009 23.5819 159.009 30.4811V48.5621C159.009 49.8674 157.935 50.9254 156.63 50.9254C151.409 50.9254 147.11 46.6931 147.11 41.4723V34.8484C147.11 30.4178 145.464 29.0253 140.274 29.0253C135.02 29.0253 133.755 30.3545 133.755 34.4687V48.5621Z" fill="black"/>
<path d="M186.39 48.5621C186.39 49.8674 185.331 50.9254 184.026 50.9254H178.035C170.059 50.9254 165.312 47.0644 165.312 38.7727V28.7721H162.992C161.686 28.7721 160.628 27.714 160.628 26.4088V21.3879C160.628 20.0827 161.686 19.0246 162.992 19.0246H165.312V15.8812C165.312 14.576 166.37 13.5179 167.676 13.5179H174.848C176.154 13.5179 177.212 14.576 177.212 15.8812V19.0246H184.026C185.331 19.0246 186.39 20.0827 186.39 21.3879V26.4088C186.39 27.714 185.331 28.7721 184.026 28.7721H177.212V37.0638C177.212 39.5956 177.971 40.2285 180.693 40.2285H184.026C185.331 40.2285 186.39 41.2866 186.39 42.5918V48.5621Z" fill="black"/>
<path d="M201.129 13.7497C201.129 15.0549 200.071 16.113 198.766 16.113H191.593C190.288 16.113 189.23 15.0549 189.23 13.7497V10.8809C189.23 9.57566 190.288 8.51758 191.593 8.51758H198.766C200.071 8.51758 201.129 9.57566 201.129 10.8809V13.7497ZM201.129 48.9422C201.129 50.0375 200.242 50.9254 199.146 50.9254C193.67 50.9254 189.23 46.4858 189.23 41.0092V21.3879C189.23 20.0827 190.288 19.0246 191.593 19.0246H198.766C200.071 19.0246 201.129 20.0827 201.129 21.3879V48.9422Z" fill="black"/>
<path d="M216.83 48.5621C216.83 49.8674 215.772 50.9254 214.466 50.9254H207.293C205.988 50.9254 204.93 49.8674 204.93 48.5621V10.8809C204.93 9.57567 205.988 8.51758 207.293 8.51758H214.466C215.772 8.51758 216.83 9.57566 216.83 10.8809V48.5621Z" fill="black"/>
<path d="M60.8936 49.3078L52.5889 28.0889C50.4684 22.6711 45.2448 19.1061 39.4268 19.1061C37.7198 19.1061 36.5795 20.865 37.2762 22.4233L47.5159 45.3254C49.0376 48.7289 52.4176 50.9201 56.1458 50.9201H59.7932C60.6254 50.9201 61.1969 50.0827 60.8936 49.3078Z" fill="black"/>
<path d="M43.1558 49.9457L34.8511 28.7269C32.7306 23.309 27.507 19.744 21.689 19.744C19.982 19.744 18.8417 21.5029 19.5385 23.0612L29.7781 45.9633C31.2998 49.3668 34.6798 51.558 38.408 51.558H42.0554C42.8876 51.558 43.4591 50.7207 43.1558 49.9457Z" fill="#39A5E9"/>
<path d="M25.5692 49.9457L17.2645 28.7269C15.1441 23.309 9.92043 19.744 4.10245 19.744C2.39546 19.744 1.25517 21.5029 1.9519 23.0612L12.1915 45.9633C13.7133 49.3668 17.0933 51.558 20.8214 51.558H24.4689C25.3011 51.558 25.8725 50.7207 25.5692 49.9457Z" fill="#39A5E9" fill-opacity="0.5"/>
<path d="M58.9665 49.3078L67.2712 28.0889C69.3917 22.6711 74.6153 19.1061 80.4333 19.1061C82.1403 19.1061 83.2806 20.865 82.5839 22.4233L72.3442 45.3254C70.8225 48.7289 67.4425 50.9201 63.7143 50.9201H60.0669C59.2347 50.9201 58.6632 50.0827 58.9665 49.3078Z" fill="black"/>
<path fill-rule="evenodd" clip-rule="evenodd" d="M345.537 1.0202C348.977 2.10902 350.316 5.21082 349.023 9.09995C347.503 13.6749 348.474 14.4104 351.682 11.1126C355.053 7.64561 358.866 9.42828 358.549 14.3231C358.179 20.0431 354.605 22.255 349.071 20.1896C347.308 19.5317 346.854 19.4676 346.383 19.8089L345.817 20.2194L346.35 21.2416C346.643 21.8038 347.319 22.583 347.852 22.9735C351.194 25.4231 349.688 30.0339 345.545 30.0372C339.62 30.042 336.916 26.6501 338.574 21.292C339.93 16.9086 339.149 16.3613 335.88 19.4046C335.115 20.1691 335.274 20.9862 332.617 20.9741C329.213 20.9585 327.945 17.7839 329.595 13.4112C330.868 10.039 333.334 8.78844 336.713 9.80124L339.774 10.7193C342.16 11.4358 342.056 9.79219 339.565 7.41853C335.35 3.40195 339.389 -0.925497 345.537 1.0202ZM341.883 16.3924C341.077 15.3217 341.583 13.6742 342.866 13.1906C344.372 12.6229 345.269 13.0172 345.899 14.5246C346.862 16.8294 343.419 18.4309 341.883 16.3924Z" fill="#39A5E9"/>
</svg>
