<svg width="1755" height="741" viewBox="0 0 1755 741" fill="none" xmlns="http://www.w3.org/2000/svg">
<path d="M1087.36 390.345H1099.3M1087.36 511.134H1099.3M1099.3 511.134H1111.24V390.345H1099.3M1099.3 511.134V390.345" stroke="#39A5E9" stroke-opacity="0.5" stroke-width="3"/>
<path d="M496.583 224.929L228.479 109.133M496.583 224.929L458.21 250.511M496.583 224.929V221.042L228.479 103.786M228.479 109.133L63.9999 310.125M228.479 109.133V103.786M63.9999 310.125L104.238 320.353M63.9999 310.125V304.127L228.479 103.786M104.238 320.353L106.041 297.447L240.93 150.31M104.238 320.353L91.9041 430.002C82.4702 488.751 98.0056 619.117 235.618 670.594C274.239 685.04 351.063 676.712 500.189 624.292M458.21 250.511L455.981 233.483L240.93 150.31M458.21 250.511L461.147 275.999C532.089 316.854 560.205 384.395 565.396 413.058C583.705 475.488 590.815 591.682 500.189 624.292M240.93 150.31L235.618 377.378C235.618 465.932 300.238 634.229 446.553 632.994C467.392 632.818 485.138 629.708 500.189 624.292" stroke="#39A5E9" stroke-opacity="0.5" stroke-width="7"/>
<path d="M732.957 526.717H700.003V170.179H1087.47V526.717H1065.21H1054.21M732.957 526.717V643.944H1054.21V595.963V583.513V526.717M732.957 526.717H1054.21" stroke="#39A5E9" stroke-opacity="0.5" stroke-width="6"/>
<path d="M1054.61 584.101H1064.31M1064.31 584.101V527.908M1064.31 584.101V594.41L1054.61 601.687" stroke="#39A5E9" stroke-opacity="0.5" stroke-width="3"/>
<rect x="735.714" y="207.163" width="316.895" height="285.038" stroke="#39A5E9" stroke-opacity="0.5" stroke-width="4"/>
<path d="M736.089 372.653H754.631M1052.88 372.653H1033.55M1033.55 372.653V341.487L1052.88 330.835M1033.55 372.653H754.631M754.631 372.653V341.487L736.089 330.835" stroke="#39A5E9" stroke-opacity="0.5" stroke-width="3"/>
<path d="M762.127 372.653V333.001V326.89M762.127 315.055V326.89M1026.44 315.055V326.89M1026.44 372.653V326.89M762.127 326.89L769.228 319.395H1018.95L1026.44 326.89" stroke="#39A5E9" stroke-opacity="0.5" stroke-width="3"/>
<path d="M762.357 331.917L768.544 325.881H1019.17L1026.27 331.766M1026.27 338.556L1018.27 331.766H768.544L762.357 337.499M762.357 345.044L768.544 340.366H1019.17L1026.27 345.044M1026.27 351.231H768.544H762.357M762.357 355.606L768.544 361.642H1019.17L1026.27 354.55M1026.27 364.962L1019.17 372.205M762.357 364.056L768.544 372.506" stroke="#39A5E9" stroke-opacity="0.5" stroke-width="3"/>
<circle cx="717.162" cy="188.701" r="5.5" stroke="#39A5E9" stroke-opacity="0.5" stroke-width="3"/>
<circle cx="1070.98" cy="188.701" r="5.5" stroke="#39A5E9" stroke-opacity="0.5" stroke-width="3"/>
<circle cx="717.162" cy="511.134" r="5.5" stroke="#39A5E9" stroke-opacity="0.5" stroke-width="3"/>
<circle cx="1070.98" cy="511.134" r="5.5" stroke="#39A5E9" stroke-opacity="0.5" stroke-width="3"/>
<path d="M439.314 307.919C496.532 329.844 523.202 403.505 524.955 442.239C526.318 472.364 509.7 526.363 461.038 525.828C400.21 525.16 366.92 458.293 359.77 417.876C351.964 373.749 367.791 280.513 439.314 307.919Z" stroke="#39A5E9" stroke-opacity="0.5" stroke-width="3"/>
<path d="M426.521 309.765C475.902 323.001 493.948 370.76 503.834 401.071C530.812 483.789 486.229 518.694 460.566 525.807C393.367 523.261 364.477 447.748 358.431 410.309C353.977 374.673 364.795 293.22 426.521 309.765Z" stroke="#39A5E9" stroke-opacity="0.5" stroke-width="3"/>
<path d="M1621.9 203.978V169.699H1632.66V526.181H1621.9V494.925M1621.9 203.978H1585.51V494.925H1621.9M1621.9 203.978V494.925" stroke="#39A5E9" stroke-opacity="0.5" stroke-width="8"/>
<path d="M104.47 313.776L240.819 167.328L457.966 248.127" stroke="#39A5E9" stroke-opacity="0.5" stroke-width="3"/>
<path d="M1585.54 206.776H1423.22C1349.79 210.882 1202.93 265.327 1202.93 450.254C1207.28 515.23 1257.42 645.181 1423.22 645.181C1471.04 643.732 1570.46 611.558 1585.54 494.457" stroke="#39A5E9" stroke-opacity="0.5" stroke-width="8"/>
<circle cx="1424.24" cy="450.475" r="142.701" stroke="#39A5E9" stroke-opacity="0.5" stroke-width="4"/>
<circle cx="1424.24" cy="450.475" r="128.475" stroke="#39A5E9" stroke-opacity="0.5" stroke-width="3"/>
<circle cx="1424.24" cy="450.475" r="50.0934" stroke="#39A5E9" stroke-opacity="0.5" stroke-width="3"/>
<circle cx="1424.24" cy="450.475" r="110.776" stroke="#39A5E9" stroke-opacity="0.5" stroke-width="3"/>
<path d="M1342.34 376.957H1348.63V370.004M1352.57 366.856H1359.39V360.428M1375.53 351.115L1384.18 354.656V346.917M1388.38 345.605L1395.6 351.115L1399.01 342.457M1403.47 341.014L1408.58 347.966L1412.25 340.096M1362.67 358.067L1369.88 360.428L1370.67 353.345M1418.16 340.096L1422.49 347.966L1428.65 340.096M1432.98 340.096L1435.74 347.966L1442.82 341.67M1448.85 343.113V351.115L1458.04 345.605M1461.58 346.917V354.656L1470.89 351.115M1475.48 352.951L1474.69 360.559L1484.01 358.067M1487.16 359.772L1485.58 367.774L1495.29 366.331M1498.96 368.692L1496.34 375.907H1504.87M1508.15 378.662L1504.87 386.664H1513.52M1517.2 390.337L1514.97 397.158L1521 398.338M1524 404.171L1519.51 411.033L1527.43 411.825M1530.09 416.652L1524 421.876L1531.39 425.532M1533.22 431.018L1527.43 436.372L1534.14 440.16M1534.92 446.951L1527.43 450.216L1534.92 454.526M1534.92 460.925L1526.43 463.668L1533.22 470.329M1531.39 475.292H1522.77L1529.43 484.173M1527.43 489.527H1519.77L1523.82 498.277M1521.6 504.155H1513.63L1516.64 511.86M1513.63 516.3L1506.32 513.819L1508.02 522.7M1505.14 525.181H1497.7V532.495M1494.56 536.544L1486.21 534.193L1487.12 542.029M1482.42 544.119L1476.8 542.029L1475.89 548.037M1468.7 551.302L1463.22 548.037L1461.52 554.697M1456.56 556.526L1450.68 552.869L1448.85 558.224M1442.19 560.183L1436.84 555.35L1434.1 560.183M1426.13 561.097L1422.73 555.35L1418.16 561.097M1412.28 560.183L1409.28 555.35L1404.45 559.138M1396.35 558.224L1394.52 552.869L1389.56 555.35M1384.47 553.652L1383.03 548.037L1377.94 550.387M1371.01 547.122L1369.84 541.115L1363.7 542.813M1359 539.417V533.017L1351.95 534.062M1347.51 530.275V524.92H1342.28M1338.5 519.957V513.819H1333.4M1330.79 509.117L1332.1 502.718H1327.26M1323.61 496.057L1325.3 490.703L1320.34 488.482M1318.77 482.475L1320.34 476.989L1316.29 474.377M1315.12 468.5L1318.77 463.146L1313.94 460.142M1313.94 453.481L1317.86 449.563L1313.94 445.253M1315.12 439.115L1319.56 437.156L1315.12 431.41M1316.29 424.357H1322.82L1319.56 417.043M1320.99 411.558H1327.13L1323.74 404.897M1326.35 399.935H1333.4L1330.27 392.621M1333.4 387.658H1340.19L1338.1 380.083" stroke="#39A5E9" stroke-opacity="0.5"/>
<path d="M1426.83 409.477C1426.83 411.694 1425.03 413.491 1422.81 413.491C1420.59 413.491 1418.8 411.694 1418.8 409.477C1418.8 407.26 1420.59 405.463 1422.81 405.463C1425.03 405.463 1426.83 407.26 1426.83 409.477ZM1390.9 429.415C1390.9 431.632 1389.1 433.429 1386.89 433.429C1384.67 433.429 1382.87 431.632 1382.87 429.415C1382.87 427.198 1384.67 425.401 1386.89 425.401C1389.1 425.401 1390.9 427.198 1390.9 429.415ZM1462.75 429.415C1462.75 431.632 1460.95 433.429 1458.74 433.429C1456.52 433.429 1454.72 431.632 1454.72 429.415C1454.72 427.198 1456.52 425.401 1458.74 425.401C1460.95 425.401 1462.75 427.198 1462.75 429.415ZM1390.9 472.3C1390.9 474.517 1389.1 476.314 1386.89 476.314C1384.67 476.314 1382.87 474.517 1382.87 472.3C1382.87 470.083 1384.67 468.286 1386.89 468.286C1389.1 468.286 1390.9 470.083 1390.9 472.3ZM1462.75 472.3C1462.75 474.517 1460.95 476.314 1458.74 476.314C1456.52 476.314 1454.72 474.517 1454.72 472.3C1454.72 470.083 1456.52 468.286 1458.74 468.286C1460.95 468.286 1462.75 470.083 1462.75 472.3ZM1426.83 492.614C1426.83 494.831 1425.03 496.628 1422.81 496.628C1420.59 496.628 1418.8 494.831 1418.8 492.614C1418.8 490.397 1420.59 488.6 1422.81 488.6C1425.03 488.6 1426.83 490.397 1426.83 492.614Z" stroke="#39A5E9" stroke-opacity="0.5"/>
<circle cx="1422.81" cy="450.596" r="7.30585" stroke="#39A5E9" stroke-opacity="0.5"/>
<circle cx="1422.81" cy="450.596" r="18.0478" stroke="#39A5E9" stroke-opacity="0.5"/>
<circle cx="1422.81" cy="450.596" r="22.374" stroke="#39A5E9" stroke-opacity="0.5"/>
<circle cx="1422.81" cy="450.596" r="26.5119" stroke="#39A5E9" stroke-opacity="0.5"/>
<circle cx="1422.81" cy="450.596" r="2.87665" stroke="#39A5E9" stroke-opacity="0.5" stroke-width="2"/>
<path d="M469.407 524.441L466.182 520.32L439.841 522.65M481.055 519.424V516.378L477.65 513.332L431.598 519.424M490.731 508.135L486.61 504.193L421.743 514.765M411.17 508.135L490.731 493.621L495.211 495.771L498.078 501.863M507.933 489.858L506.141 483.765L499.153 478.569L401.007 497.479M514.922 476.598L511.875 470.147L504.349 464.413L424.403 482.141M517.789 459.395L513.309 452.586L506.141 448.644L430.122 468.104M517.789 441.655L513.309 435.384L507.933 432.696L433.501 451.207M449.837 314.475V317.444L446.327 324.463L362.535 356.858M461.58 322.978L462.525 326.353L457.666 333.371L374.752 363.337M473.323 334.586L474.133 338.501L468.599 344.035L403.347 366.441M484.256 347.409L485.201 351.594L478.587 356.858L412.965 375.561M492.22 363.337V366.441L487.226 370.491L421.743 388.299M514.922 425.095L509.518 420.466L504.349 418.782L433.501 435.384M504.349 387.218L501.311 383.43L496.261 381.957L427.522 401.527M510.781 406.157L507.933 401.527L501.311 399.423L431.598 416.374M431.598 309.761L427.522 317.444L367.761 338.501M416.808 306.398L414.286 309.761L378.131 322.978" stroke="#39A5E9" stroke-opacity="0.5"/>
<path d="M357.596 396.357C356.903 386.133 360.299 364.799 379.432 361.264C403.347 356.845 425.963 384.66 431.162 415.854C436.361 447.048 432.722 487.34 410.366 492.279C392.481 496.231 377.959 470.53 372.933 457.186" stroke="#39A5E9" stroke-opacity="0.5"/>
</svg>
